<?xml version="1.0" encoding="utf-8"?>
<svg version="1.1" xmlns:xlink="http://www.w3.org/1999/xlink" width="39px" height="39px" xmlns="http://www.w3.org/2000/svg">
  <g transform="matrix(1 0 0 1 -301 -8 )">
    <path d="M 28.69140625 26.40625  C 29.0130208333333 26.0846354166667  29.173828125 25.6953125  29.173828125 25.23828125  C 29.173828125 24.7981770833333  29.0130208333333 24.4173177083333  28.69140625 24.095703125  L 24.095703125 19.5  L 28.69140625 14.904296875  C 29.0130208333333 14.5826822916667  29.173828125 14.2018229166667  29.173828125 13.76171875  C 29.173828125 13.3046875  29.0130208333333 12.9153645833333  28.69140625 12.59375  L 26.40625 10.30859375  C 26.0846354166667 9.98697916666666  25.6953125 9.826171875  25.23828125 9.826171875  C 24.7981770833333 9.826171875  24.4173177083333 9.98697916666666  24.095703125 10.30859375  L 19.5 14.904296875  L 14.904296875 10.30859375  C 14.5826822916667 9.98697916666666  14.2018229166667 9.826171875  13.76171875 9.826171875  C 13.3046875 9.826171875  12.9153645833333 9.98697916666666  12.59375 10.30859375  L 10.30859375 12.59375  C 9.98697916666667 12.9153645833333  9.826171875 13.3046875  9.826171875 13.76171875  C 9.826171875 14.2018229166667  9.98697916666667 14.5826822916667  10.30859375 14.904296875  L 14.904296875 19.5  L 10.30859375 24.095703125  C 9.98697916666667 24.4173177083333  9.826171875 24.7981770833333  9.826171875 25.23828125  C 9.826171875 25.6953125  9.98697916666667 26.0846354166667  10.30859375 26.40625  L 12.59375 28.69140625  C 12.9153645833333 29.0130208333333  13.3046875 29.173828125  13.76171875 29.173828125  C 14.2018229166667 29.173828125  14.5826822916667 29.0130208333333  14.904296875 28.69140625  L 19.5 24.095703125  L 24.095703125 28.69140625  C 24.4173177083333 29.0130208333333  24.7981770833333 29.173828125  25.23828125 29.173828125  C 25.6953125 29.173828125  26.0846354166667 29.0130208333333  26.40625 28.69140625  L 28.69140625 26.40625  Z M 36.384765625 9.7119140625  C 38.1282552083333 12.6995442708333  39 15.9622395833333  39 19.5  C 39 23.0377604166667  38.1282552083333 26.3004557291667  36.384765625 29.2880859375  C 34.6412760416667 32.2757161458333  32.2757161458333 34.6412760416667  29.2880859375 36.384765625  C 26.3004557291667 38.1282552083333  23.0377604166667 39  19.5 39  C 15.9622395833333 39  12.6995442708333 38.1282552083333  9.7119140625 36.384765625  C 6.72428385416667 34.6412760416667  4.35872395833333 32.2757161458333  2.615234375 29.2880859375  C 0.871744791666667 26.3004557291667  0 23.0377604166667  0 19.5  C 0 15.9622395833333  0.871744791666667 12.6995442708333  2.615234375 9.7119140625  C 4.35872395833333 6.72428385416667  6.72428385416667 4.35872395833333  9.7119140625 2.615234375  C 12.6995442708333 0.871744791666663  15.9622395833333 0  19.5 0  C 23.0377604166667 0  26.3004557291667 0.871744791666663  29.2880859375 2.615234375  C 32.2757161458333 4.35872395833333  34.6412760416667 6.72428385416667  36.384765625 9.7119140625  Z " fill-rule="nonzero" fill="#000000" stroke="none" transform="matrix(1 0 0 1 301 8 )" />
  </g>
</svg>