<?xml version="1.0" encoding="utf-8"?>
<svg version="1.1" xmlns:xlink="http://www.w3.org/1999/xlink" width="20px" height="10px" xmlns="http://www.w3.org/2000/svg">
  <g transform="matrix(1 0 0 1 -159 -102 )">
    <path d="M 19.62890625 0.329861111111112  C 19.8763020833333 0.549768518518516  20 0.810185185185183  20 1.11111111111111  C 20 1.41203703703704  19.8763020833333 1.6724537037037  19.62890625 1.89236111111111  L 10.87890625 9.67013888888889  C 10.6315104166667 9.89004629629629  10.3385416666667 10  10 10  C 9.66145833333334 10  9.36848958333334 9.89004629629629  9.12109375 9.67013888888889  L 0.37109375 1.89236111111111  C 0.123697916666667 1.6724537037037  0 1.41203703703704  0 1.11111111111111  C 0 0.810185185185183  0.123697916666667 0.549768518518516  0.37109375 0.329861111111112  C 0.618489583333333 0.109953703703702  0.911458333333333 0  1.25 0  L 18.75 0  C 19.0885416666667 0  19.3815104166667 0.109953703703702  19.62890625 0.329861111111112  Z " fill-rule="nonzero" fill="#000000" stroke="none" transform="matrix(1 0 0 1 159 102 )" />
  </g>
</svg>