<?xml version="1.0" encoding="utf-8"?>
<svg version="1.1" xmlns:xlink="http://www.w3.org/1999/xlink" width="16px" height="26px" xmlns="http://www.w3.org/2000/svg">
  <g transform="matrix(1 0 0 1 -427 -51 )">
    <path d="M 15.7250859106529 12.4008016032064  C 15.9083619702176 12.5744822979292  16 12.7742150968604  16 13  C 16 13.2257849031396  15.9083619702176 13.4255177020708  15.7250859106529 13.5991983967936  L 2.91408934707904 25.7394789579158  C 2.73081328751432 25.9131596526386  2.52004581901489 26  2.28178694158076 26  C 2.04352806414662 26  1.83276059564719 25.9131596526386  1.64948453608247 25.7394789579158  L 0.274914089347079 24.436873747495  C 0.0916380297823597 24.2631930527722  0 24.063460253841  0 23.8376753507014  C 0 23.6118904475618  0.0916380297823597 23.4121576486306  0.274914089347079 23.2384769539078  L 11.0790378006873 13  L 0.274914089347079 2.76152304609218  C 0.0916380297823597 2.5878423513694  0 2.38810955243821  0 2.1623246492986  C 0 1.93653974615898  0.0916380297823597 1.73680694722779  0.274914089347079 1.56312625250501  L 1.64948453608247 0.260521042084169  C 1.83276059564719 0.0868403473613886  2.04352806414662 0  2.28178694158076 0  C 2.52004581901489 0  2.73081328751432 0.0868403473613886  2.91408934707904 0.260521042084169  L 15.7250859106529 12.4008016032064  Z " fill-rule="nonzero" fill="#000000" stroke="none" transform="matrix(1 0 0 1 427 51 )" />
  </g>
</svg>